<?xml version="1.0" encoding="UTF-8" standalone="no"?>
<svg
   xmlns:osb="http://www.openswatchbook.org/uri/2009/osb"
   xmlns:dc="http://purl.org/dc/elements/1.1/"
   xmlns:cc="http://creativecommons.org/ns#"
   xmlns:rdf="http://www.w3.org/1999/02/22-rdf-syntax-ns#"
   xmlns:svg="http://www.w3.org/2000/svg"
   xmlns="http://www.w3.org/2000/svg"
   xmlns:xlink="http://www.w3.org/1999/xlink"
   xmlns:sodipodi="http://sodipodi.sourceforge.net/DTD/sodipodi-0.dtd"
   xmlns:inkscape="http://www.inkscape.org/namespaces/inkscape"
   width="16"
   height="16"
   viewBox="0 0 4.2333332 4.2333335"
   version="1.1"
   id="svg8"
   inkscape:version="1.0.2-2 (e86c870879, 2021-01-15)"
   sodipodi:docname="oomc_fun_conveyor_south.svg"
   inkscape:export-filename="../oomc_fun_rp/textures/oomc_fun_conveyor_south.png"
   inkscape:export-xdpi="96"
   inkscape:export-ydpi="96">
  <defs
     id="defs2">
    <linearGradient
       inkscape:collect="always"
       id="linearGradient881">
      <stop
         style="stop-color:#42494d;stop-opacity:1"
         offset="0"
         id="stop865" />
      <stop
         style="stop-color:#586066;stop-opacity:1"
         offset="0.19397308"
         id="stop883" />
      <stop
         style="stop-color:#586066;stop-opacity:1"
         offset="0.35122299"
         id="stop887" />
      <stop
         style="stop-color:#42494d;stop-opacity:1"
         offset="1"
         id="stop879" />
    </linearGradient>
    <linearGradient
       inkscape:collect="always"
       id="linearGradient2870">
      <stop
         style="stop-color:#363d41;stop-opacity:1"
         offset="0"
         id="stop2866" />
      <stop
         style="stop-color:#353a3f;stop-opacity:1"
         offset="1"
         id="stop2868" />
    </linearGradient>
    <linearGradient
       inkscape:collect="always"
       id="linearGradient2840">
      <stop
         style="stop-color:#4d4242;stop-opacity:1"
         offset="0"
         id="stop2836" />
      <stop
         style="stop-color:#565656;stop-opacity:1"
         offset="0.14715137"
         id="stop2844" />
      <stop
         style="stop-color:#606060;stop-opacity:1"
         offset="0.31777263"
         id="stop2856" />
      <stop
         style="stop-color:#4f4f4f;stop-opacity:1"
         offset="0.39183006"
         id="stop2864" />
      <stop
         style="stop-color:#4d4d4d;stop-opacity:1"
         offset="0.53388226"
         id="stop2858" />
      <stop
         style="stop-color:#7b7b7b;stop-opacity:1"
         offset="0.70375055"
         id="stop2862" />
      <stop
         style="stop-color:#4d4d4d;stop-opacity:1"
         offset="0.84742886"
         id="stop2860" />
      <stop
         style="stop-color:#4d4242;stop-opacity:1"
         offset="1"
         id="stop2838" />
    </linearGradient>
    <linearGradient
       id="linearGradient2828"
       osb:paint="solid">
      <stop
         style="stop-color:#4d4d4d;stop-opacity:1;"
         offset="0"
         id="stop2826" />
    </linearGradient>
    <linearGradient
       id="linearGradient6027"
       osb:paint="solid">
      <stop
         style="stop-color:#00a95f;stop-opacity:1;"
         offset="0"
         id="stop6025" />
    </linearGradient>
    <linearGradient
       id="linearGradient6070"
       osb:paint="solid">
      <stop
         style="stop-color:#4d4d4d;stop-opacity:1;"
         offset="0"
         id="stop6068" />
    </linearGradient>
    <linearGradient
       inkscape:collect="always"
       xlink:href="#linearGradient2840"
       id="linearGradient2842"
       x1="0.12244569"
       y1="0.12244569"
       x2="4.110889"
       y2="1.4650546"
       gradientUnits="userSpaceOnUse"
       gradientTransform="matrix(0.99059202,0,0,1.0187569,0.0116031,0.00815445)" />
    <radialGradient
       inkscape:collect="always"
       xlink:href="#linearGradient2870"
       id="radialGradient2874"
       cx="1.3166872"
       cy="1.7127022"
       fx="1.3166872"
       fy="1.7127022"
       r="2.1265132"
       gradientTransform="matrix(0.5976788,1.1957691,-1.6365055,0.86514613,2.6515471,-2.6052785)"
       gradientUnits="userSpaceOnUse" />
    <linearGradient
       inkscape:collect="always"
       xlink:href="#linearGradient881"
       id="linearGradient863"
       gradientUnits="userSpaceOnUse"
       gradientTransform="matrix(1.0068943,0,0,0.97877233,-0.00192389,0.01259657)"
       x1="2.0266957"
       y1="0.063212924"
       x2="2.0304747"
       y2="1.5158256" />
  </defs>
  <sodipodi:namedview
     id="base"
     pagecolor="#ffffff"
     bordercolor="#666666"
     borderopacity="1.0"
     inkscape:pageopacity="0"
     inkscape:pageshadow="2"
     inkscape:zoom="31.678384"
     inkscape:cx="9.8450825"
     inkscape:cy="8.6557262"
     inkscape:document-units="px"
     inkscape:current-layer="layer1"
     inkscape:document-rotation="0"
     showgrid="false"
     units="px"
     inkscape:window-width="1367"
     inkscape:window-height="739"
     inkscape:window-x="1530"
     inkscape:window-y="136"
     inkscape:window-maximized="0"
     inkscape:pagecheckerboard="true" />
  <metadata
     id="metadata5">
    <rdf:RDF>
      <cc:Work
         rdf:about="">
        <dc:format>image/svg+xml</dc:format>
        <dc:type
           rdf:resource="http://purl.org/dc/dcmitype/StillImage" />
        <dc:title />
        <dc:creator>
          <cc:Agent>
            <dc:title>Copyright (c) 2021 oO (https://github.com/oocytanb)</dc:title>
          </cc:Agent>
        </dc:creator>
        <cc:license
           rdf:resource="http://creativecommons.org/licenses/by/4.0/" />
      </cc:Work>
      <cc:License
         rdf:about="http://creativecommons.org/licenses/by/4.0/">
        <cc:permits
           rdf:resource="http://creativecommons.org/ns#Reproduction" />
        <cc:permits
           rdf:resource="http://creativecommons.org/ns#Distribution" />
        <cc:requires
           rdf:resource="http://creativecommons.org/ns#Notice" />
        <cc:requires
           rdf:resource="http://creativecommons.org/ns#Attribution" />
        <cc:permits
           rdf:resource="http://creativecommons.org/ns#DerivativeWorks" />
      </cc:License>
    </rdf:RDF>
  </metadata>
  <g
     inkscape:label="レイヤー 1"
     inkscape:groupmode="layer"
     id="layer1">
    <rect
       style="opacity:0.999;fill:#282828;fill-opacity:1;stroke:none;stroke-width:0.101955;stroke-linecap:round;stroke-miterlimit:4;stroke-dasharray:none;stroke-opacity:1;paint-order:stroke markers fill"
       id="rect2886-0"
       width="3.4395833"
       height="0.39687499"
       x="0.39687499"
       y="3.8364584" />
    <rect
       style="opacity:0.999;fill:url(#linearGradient2842);fill-opacity:1;stroke:url(#radialGradient2874);stroke-width:0.265794;stroke-linecap:round;stroke-miterlimit:4;stroke-dasharray:none;stroke-opacity:1;paint-order:stroke markers fill"
       id="rect874"
       width="3.9675398"
       height="1.4539977"
       x="0.13289684"
       y="0.13289684" />
    <rect
       style="opacity:1;fill:url(#linearGradient863);fill-opacity:1;stroke:#3b3e42;stroke-width:0.529917;stroke-linecap:round;stroke-miterlimit:4;stroke-dasharray:none;stroke-opacity:1;paint-order:stroke markers fill"
       id="rect858"
       width="3.7034166"
       height="1.1898755"
       x="0.2649582"
       y="0.2649582"
       ry="0.082821995" />
    <rect
       style="opacity:0.999;fill:#565656;fill-opacity:1;stroke:#363d41;stroke-width:0.528861;stroke-linecap:round;stroke-miterlimit:4;stroke-dasharray:none;stroke-opacity:1;paint-order:stroke markers fill"
       id="rect2886"
       width="3.7044725"
       height="1.852389"
       x="0.26443049"
       y="1.8519305" />
    <rect
       style="opacity:0.999;fill:#6b6b6b;fill-opacity:1;stroke:none;stroke-width:0.178691;stroke-linecap:round;stroke-miterlimit:4;stroke-dasharray:none;stroke-opacity:1;paint-order:stroke markers fill"
       id="rect2886-3"
       width="3.1749997"
       height="1.5875"
       x="0.5291667"
       y="1.8520833" />
    <rect
       style="fill:#363d41;fill-opacity:1;stroke:none;stroke-width:0.439313;stroke-linecap:round;stroke-miterlimit:4;stroke-dasharray:none;stroke-opacity:1;paint-order:stroke markers fill"
       id="rect869"
       width="0.5291667"
       height="0.39687499"
       x="0"
       y="3.8364584" />
    <rect
       style="fill:#363d41;fill-opacity:1;stroke:none;stroke-width:0.439314;stroke-linecap:round;stroke-miterlimit:4;stroke-dasharray:none;stroke-opacity:1;paint-order:stroke markers fill"
       id="rect869-1"
       width="0.5291667"
       height="0.39687499"
       x="3.7041667"
       y="3.8364584" />
    <g
       id="g926">
      <path
         id="path862"
         style="fill:#565656;fill-opacity:1;stroke:none;stroke-width:0.0172814;stroke-linecap:round;stroke-miterlimit:4;stroke-dasharray:none;stroke-opacity:1;paint-order:stroke markers fill"
         d="m 0.66145557,3.1750436 a 0.13229212,0.13228907 0 0 1 0.00749,2.579e-4 0.13229212,0.13228907 0 0 1 0.011111,0.00103 0.13229212,0.13228907 0 0 1 0.011111,0.00206 0.13229212,0.13228907 0 0 1 0.010593,0.0031 0.13229212,0.13228907 0 0 1 0.010594,0.00361 0.13229212,0.13228907 0 0 1 0.010077,0.00465 0.13229212,0.13228907 0 0 1 0.00956,0.00568 0.13229212,0.13228907 0 0 1 0.00904,0.0062 0.13229212,0.13228907 0 0 1 0.00879,0.00723 0.13229212,0.13228907 0 0 1 0.00775,0.00775 0.13229212,0.13228907 0 0 1 0.00749,0.00827 0.13229212,0.13228907 0 0 1 0.00646,0.00904 0.13229212,0.13228907 0 0 1 0.00568,0.00956 0.13229212,0.13228907 0 0 1 0.00517,0.00982 0.13229212,0.13228907 0 0 1 0.00387,0.010336 0.13229212,0.13228907 0 0 1 0.00336,0.010594 0.13229212,0.13228907 0 0 1 0.00233,0.010852 0.13229212,0.13228907 0 0 1 0.00129,0.01111 0.13229212,0.13228907 0 0 1 5.15e-4,0.011111 0.13229212,0.13228907 0 0 1 -2.579e-4,0.00749 0.13229212,0.13228907 0 0 1 -0.00103,0.01111 0.13229212,0.13228907 0 0 1 -0.00206,0.011111 0.13229212,0.13228907 0 0 1 -0.00284,0.010594 0.13229212,0.13228907 0 0 1 -0.00388,0.010594 0.13229212,0.13228907 0 0 1 -0.00465,0.010076 0.13229212,0.13228907 0 0 1 -0.00543,0.00956 0.13229212,0.13228907 0 0 1 -0.00646,0.00904 0.13229212,0.13228907 0 0 1 -0.00698,0.00879 0.13229212,0.13228907 0 0 1 -0.00775,0.00775 0.13229212,0.13228907 0 0 1 -0.00853,0.00749 0.13229212,0.13228907 0 0 1 -0.00904,0.00646 0.13229212,0.13228907 0 0 1 -0.0093,0.00568 0.13229212,0.13228907 0 0 1 -0.010077,0.00517 0.13229212,0.13228907 0 0 1 -0.010335,0.00387 0.13229212,0.13228907 0 0 1 -0.010594,0.00336 0.13229212,0.13228907 0 0 1 -0.010852,0.00232 0.13229212,0.13228907 0 0 1 -0.011111,0.00129 0.13229212,0.13228907 0 0 1 -0.011111,5.15e-4 0.13229212,0.13228907 0 0 1 -0.00749,-2.645e-4 0.13229212,0.13228907 0 0 1 -0.011111,-0.00103 0.13229212,0.13228907 0 0 1 -0.010852,-0.00207 0.13229212,0.13228907 0 0 1 -0.010852,-0.00285 0.13229212,0.13228907 0 0 1 -0.010335,-0.00387 0.13229212,0.13228907 0 0 1 -0.010077,-0.00465 0.13229212,0.13228907 0 0 1 -0.00982,-0.00543 0.13229212,0.13228907 0 0 1 -0.00904,-0.00646 0.13229212,0.13228907 0 0 1 -0.00853,-0.00698 0.13229212,0.13228907 0 0 1 -0.00801,-0.00775 0.13229212,0.13228907 0 0 1 -0.00723,-0.00853 0.13229212,0.13228907 0 0 1 -0.00672,-0.00904 0.13229212,0.13228907 0 0 1 -0.00568,-0.0093 0.13229212,0.13228907 0 0 1 -0.00491,-0.010076 0.13229212,0.13228907 0 0 1 -0.00413,-0.010336 0.13229212,0.13228907 0 0 1 -0.00336,-0.010594 0.13229212,0.13228907 0 0 1 -0.00232,-0.010852 0.13229212,0.13228907 0 0 1 -0.0013,-0.01111 0.13229212,0.13228907 0 0 1 -5.15e-4,-0.01111 0.13229212,0.13228907 0 0 1 2.58e-4,-0.00749 0.13229212,0.13228907 0 0 1 0.00103,-0.011111 0.13229212,0.13228907 0 0 1 0.00206,-0.010852 0.13229212,0.13228907 0 0 1 0.00284,-0.010852 0.13229212,0.13228907 0 0 1 0.00388,-0.010336 0.13229212,0.13228907 0 0 1 0.00465,-0.010076 0.13229212,0.13228907 0 0 1 0.00568,-0.00982 0.13229212,0.13228907 0 0 1 0.0062,-0.00904 0.13229212,0.13228907 0 0 1 0.00723,-0.00853 0.13229212,0.13228907 0 0 1 0.00775,-0.00801 0.13229212,0.13228907 0 0 1 0.00827,-0.00723 0.13229212,0.13228907 0 0 1 0.00904,-0.00672 0.13229212,0.13228907 0 0 1 0.00956,-0.00568 0.13229212,0.13228907 0 0 1 0.00982,-0.00491 0.13229212,0.13228907 0 0 1 0.010336,-0.00413 0.13229212,0.13228907 0 0 1 0.010594,-0.00336 0.13229212,0.13228907 0 0 1 0.010852,-0.00232 0.13229212,0.13228907 0 0 1 0.011111,-0.00129 0.13229212,0.13228907 0 0 1 0.011111,-5.15e-4 z" />
      <path
         id="path866"
         style="fill:#565656;fill-opacity:1;stroke:none;stroke-width:0.034563;stroke-linecap:round;stroke-miterlimit:4;stroke-dasharray:none;stroke-opacity:1;paint-order:stroke markers fill"
         d="M 1.3094808,2.1167093 A 0.52916669,0.52916669 0 0 0 0.79375003,2.645876 0.52916669,0.52916669 0 0 0 1.3229167,3.1750427 0.52916669,0.52916669 0 0 0 1.8520833,2.645876 0.52916669,0.52916669 0 0 0 1.3229167,2.1167093 a 0.52916669,0.52916669 0 0 0 -0.013436,0 z m 0.013436,0.2645833 a 0.26458336,0.26458336 0 0 1 0.022221,0.00103 0.26458336,0.26458336 0 0 1 0.022221,0.00259 0.26458336,0.26458336 0 0 1 0.021704,0.00465 0.26458336,0.26458336 0 0 1 0.021187,0.00672 0.26458336,0.26458336 0 0 1 0.020671,0.00827 0.26458336,0.26458336 0 0 1 0.019637,0.00982 0.26458336,0.26458336 0 0 1 0.01912,0.011369 0.26458336,0.26458336 0 0 1 0.018087,0.013436 0.26458336,0.26458336 0 0 1 0.016536,0.014469 0.26458336,0.26458336 0 0 1 0.015503,0.01602 0.26458336,0.26458336 0 0 1 0.014469,0.017053 0.26458336,0.26458336 0 0 1 0.012402,0.018087 0.26458336,0.26458336 0 0 1 0.011369,0.019637 0.26458336,0.26458336 0 0 1 0.0093,0.020153 0.26458336,0.26458336 0 0 1 0.00775,0.020672 0.26458336,0.26458336 0 0 1 0.00568,0.021704 0.26458336,0.26458336 0 0 1 0.00413,0.021704 0.26458336,0.26458336 0 0 1 0.00207,0.022222 0.26458336,0.26458336 0 0 1 5.16e-4,0.014986 0.26458336,0.26458336 0 0 1 -0.00103,0.02222 0.26458336,0.26458336 0 0 1 -0.00258,0.02222 0.26458336,0.26458336 0 0 1 -0.00465,0.021704 0.26458336,0.26458336 0 0 1 -0.00672,0.021188 0.26458336,0.26458336 0 0 1 -0.00827,0.020672 0.26458336,0.26458336 0 0 1 -0.00982,0.020153 0.26458336,0.26458336 0 0 1 -0.011369,0.018603 0.26458336,0.26458336 0 0 1 -0.013436,0.018087 0.26458336,0.26458336 0 0 1 -0.014469,0.017052 0.26458336,0.26458336 0 0 1 -0.01602,0.015502 0.26458336,0.26458336 0 0 1 -0.017053,0.013954 0.26458336,0.26458336 0 0 1 -0.018087,0.01292 0.26458336,0.26458336 0 0 1 -0.019637,0.010851 0.26458336,0.26458336 0 0 1 -0.020154,0.0093 0.26458336,0.26458336 0 0 1 -0.020671,0.00775 0.26458336,0.26458336 0 0 1 -0.021704,0.00569 0.26458336,0.26458336 0 0 1 -0.021704,0.00414 0.26458336,0.26458336 0 0 1 -0.022221,0.00206 0.26458336,0.26458336 0 0 1 -0.014986,5.291e-4 0.26458336,0.26458336 0 0 1 -0.022221,-0.00103 0.26458336,0.26458336 0 0 1 -0.022221,-0.00259 0.26458336,0.26458336 0 0 1 -0.021704,-0.00465 0.26458336,0.26458336 0 0 1 -0.021187,-0.00672 0.26458336,0.26458336 0 0 1 -0.020671,-0.00775 0.26458336,0.26458336 0 0 1 -0.020154,-0.010335 0.26458336,0.26458336 0 0 1 -0.018603,-0.011369 0.26458336,0.26458336 0 0 1 -0.018087,-0.01292 0.26458336,0.26458336 0 0 1 -0.017053,-0.014986 0.26458336,0.26458336 0 0 1 -0.015503,-0.015502 0.26458336,0.26458336 0 0 1 -0.013953,-0.017571 0.26458336,0.26458336 0 0 1 -0.012919,-0.018087 0.26458336,0.26458336 0 0 1 -0.010852,-0.019121 0.26458336,0.26458336 0 0 1 -0.0093,-0.020153 0.26458336,0.26458336 0 0 1 -0.00775,-0.021188 0.26458336,0.26458336 0 0 1 -0.00568,-0.021188 0.26458336,0.26458336 0 0 1 -0.00413,-0.022222 0.26458336,0.26458336 0 0 1 -0.00207,-0.02222 0.26458336,0.26458336 0 0 1 -5.159e-4,-0.014986 0.26458336,0.26458336 0 0 1 0.00104,-0.022222 0.26458336,0.26458336 0 0 1 0.00258,-0.02222 0.26458336,0.26458336 0 0 1 0.00465,-0.021704 0.26458336,0.26458336 0 0 1 0.00672,-0.021188 0.26458336,0.26458336 0 0 1 0.00775,-0.020672 0.26458336,0.26458336 0 0 1 0.010335,-0.019637 0.26458336,0.26458336 0 0 1 0.011369,-0.019122 0.26458336,0.26458336 0 0 1 0.012919,-0.018087 0.26458336,0.26458336 0 0 1 0.014986,-0.016536 0.26458336,0.26458336 0 0 1 0.015503,-0.015503 0.26458336,0.26458336 0 0 1 0.01757,-0.014469 0.26458336,0.26458336 0 0 1 0.018087,-0.012402 0.26458336,0.26458336 0 0 1 0.01912,-0.011369 0.26458336,0.26458336 0 0 1 0.020154,-0.0093 0.26458336,0.26458336 0 0 1 0.021187,-0.00723 0.26458336,0.26458336 0 0 1 0.021187,-0.0062 0.26458336,0.26458336 0 0 1 0.022221,-0.00413 0.26458336,0.26458336 0 0 1 0.022221,-0.00207 0.26458336,0.26458336 0 0 1 0.014986,-5.159e-4 z" />
    </g>
  </g>
</svg>
