<?xml version="1.0" encoding="UTF-8" standalone="no"?>
<svg
   xmlns:osb="http://www.openswatchbook.org/uri/2009/osb"
   xmlns:dc="http://purl.org/dc/elements/1.1/"
   xmlns:cc="http://creativecommons.org/ns#"
   xmlns:rdf="http://www.w3.org/1999/02/22-rdf-syntax-ns#"
   xmlns:svg="http://www.w3.org/2000/svg"
   xmlns="http://www.w3.org/2000/svg"
   xmlns:sodipodi="http://sodipodi.sourceforge.net/DTD/sodipodi-0.dtd"
   xmlns:inkscape="http://www.inkscape.org/namespaces/inkscape"
   width="16"
   height="16"
   viewBox="0 0 4.2333332 4.2333335"
   version="1.1"
   id="svg8"
   inkscape:version="1.0.2-2 (e86c870879, 2021-01-15)"
   sodipodi:docname="oomc_fun_oo_stone.svg"
   inkscape:export-filename="../oomc_fun_rp/textures/oomc_fun_oo_stone.png"
   inkscape:export-xdpi="96"
   inkscape:export-ydpi="96">
  <defs
     id="defs2">
    <linearGradient
       id="linearGradient6027"
       osb:paint="solid">
      <stop
         style="stop-color:#00a95f;stop-opacity:1;"
         offset="0"
         id="stop6025" />
    </linearGradient>
    <linearGradient
       id="linearGradient6070"
       osb:paint="solid">
      <stop
         style="stop-color:#4d4d4d;stop-opacity:1;"
         offset="0"
         id="stop6068" />
    </linearGradient>
  </defs>
  <sodipodi:namedview
     id="base"
     pagecolor="#ffffff"
     bordercolor="#666666"
     borderopacity="1.0"
     inkscape:pageopacity="1"
     inkscape:pageshadow="2"
     inkscape:zoom="15.839192"
     inkscape:cx="10.796484"
     inkscape:cy="12.51779"
     inkscape:document-units="px"
     inkscape:current-layer="layer1"
     inkscape:document-rotation="0"
     showgrid="false"
     units="px"
     inkscape:window-width="1295"
     inkscape:window-height="709"
     inkscape:window-x="1373"
     inkscape:window-y="139"
     inkscape:window-maximized="0"
     inkscape:pagecheckerboard="true" />
  <metadata
     id="metadata5">
    <rdf:RDF>
      <cc:Work
         rdf:about="">
        <dc:format>image/svg+xml</dc:format>
        <dc:type
           rdf:resource="http://purl.org/dc/dcmitype/StillImage" />
        <dc:title />
        <dc:creator>
          <cc:Agent>
            <dc:title>Copyright (c) 2021 oO (https://github.com/oocytanb)</dc:title>
          </cc:Agent>
        </dc:creator>
        <cc:license
           rdf:resource="http://creativecommons.org/licenses/by/4.0/" />
      </cc:Work>
      <cc:License
         rdf:about="http://creativecommons.org/licenses/by/4.0/">
        <cc:permits
           rdf:resource="http://creativecommons.org/ns#Reproduction" />
        <cc:permits
           rdf:resource="http://creativecommons.org/ns#Distribution" />
        <cc:requires
           rdf:resource="http://creativecommons.org/ns#Notice" />
        <cc:requires
           rdf:resource="http://creativecommons.org/ns#Attribution" />
        <cc:permits
           rdf:resource="http://creativecommons.org/ns#DerivativeWorks" />
      </cc:License>
    </rdf:RDF>
  </metadata>
  <g
     inkscape:label="レイヤー 1"
     inkscape:groupmode="layer"
     id="layer1">
    <g
       id="g4523"
       transform="matrix(0.04375,0,0,0.04375,-0.8466667,-7.9137493)">
      <path
         inkscape:connector-curvature="0"
         id="path4518"
         d="m 70.737392,187.12557 a 39.137021,39.137022 0 0 0 -39.13702,39.13702 39.137021,39.137022 0 0 0 39.13702,39.13702 39.137021,39.137022 0 0 0 39.137028,-39.13702 39.137021,39.137022 0 0 0 -39.137028,-39.13702 z m 0,6.52283 A 32.614185,32.614186 0 0 1 103.35158,226.26259 32.614185,32.614186 0 0 1 70.737392,258.87677 32.614185,32.614186 0 0 1 38.123208,226.26259 32.614185,32.614186 0 0 1 70.737392,193.6484 Z"
         style="fill:#00a95f;fill-opacity:1;stroke:#00884b;stroke-width:0.384504;stroke-linecap:round;stroke-linejoin:round;stroke-miterlimit:4;stroke-dasharray:none;stroke-opacity:1" />
      <path
         inkscape:connector-curvature="0"
         id="path4520"
         d="m 30.730659,261.05105 a 5.2182694,5.2182697 0 0 0 -5.218269,5.21827 5.2182694,5.2182697 0 0 0 5.218269,5.21827 5.2182694,5.2182697 0 0 0 5.218269,-5.21827 5.2182694,5.2182697 0 0 0 -5.218269,-5.21827 z m 0,2.60913 a 2.6091347,2.6091348 0 0 1 2.609135,2.60914 2.6091347,2.6091348 0 0 1 -2.609135,2.60914 2.6091347,2.6091348 0 0 1 -2.609135,-2.60914 2.6091347,2.6091348 0 0 1 2.609135,-2.60914 z"
         style="fill:#00a95f;fill-opacity:1;stroke:#00884b;stroke-width:0.224787;stroke-linecap:round;stroke-linejoin:round;stroke-miterlimit:4;stroke-dasharray:none;stroke-opacity:1" />
    </g>
  </g>
</svg>
