<?xml version="1.0" encoding="UTF-8" standalone="no"?>
<svg
   xmlns:osb="http://www.openswatchbook.org/uri/2009/osb"
   xmlns:dc="http://purl.org/dc/elements/1.1/"
   xmlns:cc="http://creativecommons.org/ns#"
   xmlns:rdf="http://www.w3.org/1999/02/22-rdf-syntax-ns#"
   xmlns:svg="http://www.w3.org/2000/svg"
   xmlns="http://www.w3.org/2000/svg"
   xmlns:sodipodi="http://sodipodi.sourceforge.net/DTD/sodipodi-0.dtd"
   xmlns:inkscape="http://www.inkscape.org/namespaces/inkscape"
   width="16"
   height="16"
   viewBox="0 0 4.2333332 4.2333335"
   version="1.1"
   id="svg8"
   inkscape:version="1.0.2-2 (e86c870879, 2021-01-15)"
   sodipodi:docname="oomc_fun_ooco_stone.svg"
   inkscape:export-filename="../oomc_fun_rp/textures/oomc_fun_ooco_stone.png"
   inkscape:export-xdpi="96"
   inkscape:export-ydpi="96">
  <defs
     id="defs2">
    <linearGradient
       id="linearGradient6027"
       osb:paint="solid">
      <stop
         style="stop-color:#00a95f;stop-opacity:1;"
         offset="0"
         id="stop6025" />
    </linearGradient>
    <linearGradient
       id="linearGradient6070"
       osb:paint="solid">
      <stop
         style="stop-color:#4d4d4d;stop-opacity:1;"
         offset="0"
         id="stop6068" />
    </linearGradient>
  </defs>
  <sodipodi:namedview
     id="base"
     pagecolor="#ffffff"
     bordercolor="#666666"
     borderopacity="1.0"
     inkscape:pageopacity="1"
     inkscape:pageshadow="2"
     inkscape:zoom="8"
     inkscape:cx="-2.0831378"
     inkscape:cy="11.533203"
     inkscape:document-units="px"
     inkscape:current-layer="layer1"
     inkscape:document-rotation="0"
     showgrid="false"
     units="px"
     inkscape:window-width="1295"
     inkscape:window-height="709"
     inkscape:window-x="1429"
     inkscape:window-y="151"
     inkscape:window-maximized="0"
     inkscape:pagecheckerboard="true" />
  <metadata
     id="metadata5">
    <rdf:RDF>
      <cc:Work
         rdf:about="">
        <dc:format>image/svg+xml</dc:format>
        <dc:type
           rdf:resource="http://purl.org/dc/dcmitype/StillImage" />
        <dc:title></dc:title>
        <dc:creator>
          <cc:Agent>
            <dc:title>Copyright (c) 2021 oO (https://github.com/oocytanb)</dc:title>
          </cc:Agent>
        </dc:creator>
        <cc:license
           rdf:resource="http://creativecommons.org/licenses/by/4.0/" />
      </cc:Work>
      <cc:License
         rdf:about="http://creativecommons.org/licenses/by/4.0/">
        <cc:permits
           rdf:resource="http://creativecommons.org/ns#Reproduction" />
        <cc:permits
           rdf:resource="http://creativecommons.org/ns#Distribution" />
        <cc:requires
           rdf:resource="http://creativecommons.org/ns#Notice" />
        <cc:requires
           rdf:resource="http://creativecommons.org/ns#Attribution" />
        <cc:permits
           rdf:resource="http://creativecommons.org/ns#DerivativeWorks" />
      </cc:License>
    </rdf:RDF>
  </metadata>
  <g
     inkscape:label="レイヤー 1"
     inkscape:groupmode="layer"
     id="layer1">
    <path
       inkscape:connector-curvature="0"
       id="path4520"
       d="M 0.49779963,3.5072341 A 0.22829929,0.2282993 0 0 0 0.26950036,3.7355334 0.22829929,0.2282993 0 0 0 0.49779963,3.9638328 0.22829929,0.2282993 0 0 0 0.7260989,3.7355334 0.22829929,0.2282993 0 0 0 0.49779963,3.5072341 Z m 0,0.1141495 A 0.11414964,0.11414965 0 0 1 0.61194929,3.7355334 0.11414964,0.11414965 0 0 1 0.49779963,3.8496833 0.11414964,0.11414965 0 0 1 0.38364997,3.7355334 0.11414964,0.11414965 0 0 1 0.49779963,3.6213836 Z"
       style="fill:#fc304d;fill-opacity:1;stroke:#871a28;stroke-width:0.00983443;stroke-linecap:round;stroke-linejoin:round;stroke-miterlimit:4;stroke-dasharray:none;stroke-opacity:1" />
    <path
       id="path837"
       style="opacity:0.999;fill:#fc304d;stroke-width:0.370814;stroke-linecap:round;paint-order:stroke markers fill"
       d="M 2.2480951,0.27299009 C 1.3022046,0.27281761 0.5353657,1.0396565 0.5355382,1.985547 0.5356511,2.9312357 1.3024064,3.6977596 2.2480951,3.6975872 2.7020843,3.6973881 3.1374108,3.5169004 3.4583572,3.1958091 c 0.018236,-0.046272 0.00791,-0.075099 -0.015245,-0.1134298 -0.024469,-0.029285 -0.028467,-0.032774 -0.061753,-0.058653 -0.038924,-0.027513 -0.022781,-0.019193 -0.053485,-0.034882 -0.028164,-0.00853 -0.046852,-0.014652 -0.071055,0.00543 C 2.9893076,3.261861 2.6264669,3.4122392 2.2480952,3.4123366 1.4601222,3.41229 0.8213555,2.7735233 0.8213089,1.9855503 c 4.66e-5,-0.787973 0.6388133,-1.4267397 1.4267863,-1.42678625 0.3782975,-3.961e-5 0.7411278,0.15014833 1.008724,0.41754556 0.031795,0.016693 0.033906,0.01904 0.065593,0.017828 0.035823,-0.012746 0.063596,-0.042692 0.086263,-0.065297 0.022768,-0.022706 0.028004,-0.031866 0.048023,-0.057767 0.022097,-0.033761 0.026987,-0.069399 0.00166,-0.096303 C 3.1374099,0.45368116 2.7020834,0.27319354 2.2480942,0.27299439 Z"
       sodipodi:nodetypes="cccccccccccccscccc" />
  </g>
</svg>
