<?xml version="1.0" encoding="UTF-8" standalone="no"?>
<svg
   xmlns:osb="http://www.openswatchbook.org/uri/2009/osb"
   xmlns:dc="http://purl.org/dc/elements/1.1/"
   xmlns:cc="http://creativecommons.org/ns#"
   xmlns:rdf="http://www.w3.org/1999/02/22-rdf-syntax-ns#"
   xmlns:svg="http://www.w3.org/2000/svg"
   xmlns="http://www.w3.org/2000/svg"
   xmlns:xlink="http://www.w3.org/1999/xlink"
   xmlns:sodipodi="http://sodipodi.sourceforge.net/DTD/sodipodi-0.dtd"
   xmlns:inkscape="http://www.inkscape.org/namespaces/inkscape"
   width="16"
   height="16"
   viewBox="0 0 4.2333332 4.2333335"
   version="1.1"
   id="svg8"
   inkscape:version="1.0.2-2 (e86c870879, 2021-01-15)"
   sodipodi:docname="oomc_fun_water_of_life.svg"
   inkscape:export-filename="../oomc_fun_rp/textures/oomc_fun_water_of_life.png"
   inkscape:export-xdpi="96"
   inkscape:export-ydpi="96">
  <defs
     id="defs2">
    <inkscape:perspective
       sodipodi:type="inkscape:persp3d"
       inkscape:vp_x="0.38570655 : 3.9332243 : 1"
       inkscape:vp_y="0 : 1000 : 0"
       inkscape:vp_z="3.6301679 : 3.7902926 : 1"
       inkscape:persp3d-origin="2.009595 : 0.93499737 : 1"
       id="perspective916" />
    <linearGradient
       id="linearGradient6027"
       osb:paint="solid">
      <stop
         style="stop-color:#00a95f;stop-opacity:1;"
         offset="0"
         id="stop6025" />
    </linearGradient>
    <linearGradient
       id="linearGradient6070"
       osb:paint="solid">
      <stop
         style="stop-color:#4d4d4d;stop-opacity:1;"
         offset="0"
         id="stop6068" />
    </linearGradient>
  </defs>
  <sodipodi:namedview
     id="base"
     pagecolor="#ffffff"
     bordercolor="#666666"
     borderopacity="1.0"
     inkscape:pageopacity="0"
     inkscape:pageshadow="2"
     inkscape:zoom="128"
     inkscape:cx="3.7768898"
     inkscape:cy="6.1408327"
     inkscape:document-units="px"
     inkscape:current-layer="layer1"
     inkscape:document-rotation="0"
     showgrid="false"
     units="px"
     inkscape:window-width="1920"
     inkscape:window-height="1017"
     inkscape:window-x="1272"
     inkscape:window-y="-8"
     inkscape:window-maximized="1"
     inkscape:pagecheckerboard="true" />
  <metadata
     id="metadata5">
    <rdf:RDF>
      <cc:Work
         rdf:about="">
        <dc:format>image/svg+xml</dc:format>
        <dc:type
           rdf:resource="http://purl.org/dc/dcmitype/StillImage" />
        <dc:title />
        <dc:creator>
          <cc:Agent>
            <dc:title>Copyright (c) 2021 oO (https://github.com/oocytanb)</dc:title>
          </cc:Agent>
        </dc:creator>
        <cc:license
           rdf:resource="http://creativecommons.org/licenses/by/4.0/" />
      </cc:Work>
      <cc:License
         rdf:about="http://creativecommons.org/licenses/by/4.0/">
        <cc:permits
           rdf:resource="http://creativecommons.org/ns#Reproduction" />
        <cc:permits
           rdf:resource="http://creativecommons.org/ns#Distribution" />
        <cc:requires
           rdf:resource="http://creativecommons.org/ns#Notice" />
        <cc:requires
           rdf:resource="http://creativecommons.org/ns#Attribution" />
        <cc:permits
           rdf:resource="http://creativecommons.org/ns#DerivativeWorks" />
      </cc:License>
    </rdf:RDF>
  </metadata>
  <g
     inkscape:label="レイヤー 1"
     inkscape:groupmode="layer"
     id="layer1">
    <path
       id="rect879"
       style="fill:#9ca9b7;fill-opacity:1;stroke:#36424d;stroke-width:0.211666;stroke-linecap:round;stroke-linejoin:miter;stroke-miterlimit:4;stroke-dasharray:none;stroke-opacity:1;paint-order:stroke fill markers"
       d="M 0.97866034,1.2435417 C 0.97862677,1.4115905 1.0572801,1.5673483 1.1802897,1.6903579 1.086641,1.8525622 0.88345672,1.9365399 0.79607556,2.1566869 0.7086944,2.3768338 0.70030626,2.5807107 0.69806473,2.952072 c -0.001253,0.2074606 0.009388,0.339439 0.12258467,0.4307421 0.10407963,0.0583 0.16406685,0.069028 0.2766975,0.073446 0.3339545,0.013098 0.3859642,0.011671 0.5574004,0.00742 0.1982196,-0.00492 0.2481909,0.00686 0.3442704,-0.058154 C 2.0918033,3.3131726 2.125905,3.2402403 2.1250717,2.9717102 2.1241346,2.6697379 2.1105909,2.4411624 2.053363,2.2646497 1.9591386,1.9740251 1.7083371,1.8434665 1.5795906,1.6919822 1.7165825,1.5381954 1.7982308,1.4141107 1.7990742,1.2435417 Z"
       sodipodi:nodetypes="cczccsscssccc" />
    <ellipse
       style="fill:#546576;fill-opacity:1;stroke:#36424d;stroke-width:0.249005;stroke-linecap:round;stroke-linejoin:round;stroke-miterlimit:4;stroke-dasharray:none;stroke-opacity:1;paint-order:stroke markers fill"
       id="path855"
       cy="1.1522268"
       cx="1.3870238"
       ry="0.11054493"
       rx="0.39175743" />
    <path
       id="rect888"
       style="fill:#36424d;fill-opacity:1;stroke:none;stroke-width:0.211666;stroke-linecap:round;stroke-linejoin:round;stroke-miterlimit:4;stroke-dasharray:none;stroke-opacity:1;paint-order:stroke fill markers"
       d="M 1.2162344,2.1994954 1.6928926,2.0070388 c 0.023038,-0.00893 0.048774,0.00242 0.057706,0.025463 l 0.01448,0.099363 c 0.00356,0.02445 -0.00242,0.048774 -0.025463,0.057706 L 1.2629573,2.3820273 c -0.023038,0.00893 -0.054142,-0.00101 -0.057706,-0.025463 l -0.01448,-0.099363 c -0.00356,-0.02445 0.00242,-0.048774 0.025463,-0.057706 z"
       sodipodi:nodetypes="cccsccssc" />
    <use
       x="0"
       y="0"
       xlink:href="#rect888"
       id="use891"
       width="100%"
       height="100%"
       transform="translate(0.09939085,0.33072917)" />
    <use
       x="0"
       y="0"
       xlink:href="#use891"
       id="use893"
       width="100%"
       height="100%"
       transform="translate(0.02923261,0.36380209)" />
    <g
       id="g904"
       transform="matrix(0.8,0,0,0.8,0.63596364,0.36471988)">
      <path
         id="rect885"
         style="fill:#9ca9b7;fill-opacity:1;stroke:#36424d;stroke-width:0.264583;stroke-linecap:round;stroke-linejoin:round;stroke-miterlimit:4;stroke-dasharray:none;stroke-opacity:1;paint-order:stroke fill markers"
         d="M 2.8710573,2.9539116 H 3.712956 c 0.019434,0 0.035079,0.015645 0.035079,0.035079 0,0 0.047564,0.4188596 -0.033245,0.6033666 C 3.6676317,3.7000309 3.5358382,3.8428471 3.4691575,3.8453838 3.3380957,3.8503738 3.2554073,3.8537538 3.1272579,3.8366138 3.068381,3.8287379 2.9331552,3.6974096 2.8852583,3.5936111 2.8005358,3.4100073 2.8359783,2.9889908 2.8359783,2.9889908 c 0,-0.019434 0.015645,-0.035079 0.035079,-0.035079 z"
         sodipodi:nodetypes="cssassasc" />
      <ellipse
         style="fill:#c8def5;fill-opacity:1;stroke:#36424d;stroke-width:0.264583;stroke-linecap:round;stroke-linejoin:round;stroke-miterlimit:4;stroke-dasharray:none;stroke-opacity:1;paint-order:stroke fill markers"
         id="path883"
         cx="3.2885818"
         cy="2.9680264"
         rx="0.45602861"
         ry="0.078928038" />
    </g>
  </g>
</svg>
